# xmcd
#
# Track frame offsets: 
#        150
#        14772
#        30195
#        55092
#        67370
#        79340
#        94642
#        114150
#        125679
#        137690
#        152390
#        166872
#
# Disc length: 2395 seconds
#
# Revision: 0
# Processed by: cddbd v1.4PL0 Copyright (c) Steve Scherf et al.
# Submitted via: ExactAudioCopy v0.90a11
#
DISCID=9409590c
DTITLE=Various Artist - Hats Off! A Tribute To Reba McEntire
DYEAR=1900
DGENRE=
TTITLE0=Little Rock
TTITLE1=The Heart Won't Lie
TTITLE2=Fancy
TTITLE3=Can't Even Get The Blues
TTITLE4=How Blue
TTITLE5=Is There Life Out There
TTITLE6=Does He Love You
TTITLE7=Sunday Kind Of Love
TTITLE8=I'm Not That Lonely Yet
TTITLE9=Take It Back
TTITLE10=Whoever's In New England
TTITLE11=Cathy's Clown
EXTD=
EXTT0=
EXTT1=
EXTT2=
EXTT3=
EXTT4=
EXTT5=
EXTT6=
EXTT7=
EXTT8=
EXTT9=
EXTT10=
EXTT11=
PLAYORDER=
